<svg id="icons" xmlns="http://www.w3.org/2000/svg" viewBox="0 0 64 64"><title>flower-pot</title><g id="flower-pot"><path d="M36.8,3c9.21.14,8.59,8.76,8.59,8.76h-.33c-1.56,0-8.16-.49-8.28-8.76h0Z" fill="#ff7965"/><path d="M32,38H27c-7.92-7.57-10.09-19.57-17-24.3,1.61-.54,4.49.14,7.77,2h0C23.09,21.45,25,31.3,32,38Z" fill="#98c16a"/><path d="M46.23,15.73c3.28-1.89,6.16-2.57,7.77-2C47.09,18.43,44.92,30.43,37,38H32c7-6.7,8.91-16.55,14.22-22.26Z" fill="#b0de7c"/><path d="M30.19,28.56C31.91,31.57,32,32.14,32,38c-7-6.7-8.91-16.55-14.22-22.26A35.25,35.25,0,0,1,30.19,28.56Z" fill="#b0de7c"/><path d="M46.22,15.74C40.91,21.45,39,31.3,32,38c0-5.86.09-6.43,1.81-9.44A35.25,35.25,0,0,1,46.22,15.74Z" fill="#83a65b"/><polygon points="46 43 43 61 21 61 18 43 46 43" fill="#bab3a1"/><polygon points="42 43 39 61 21 61 18 43 42 43" fill="#dbd2bd"/><polygon points="25 61 21 61 18 43 22 43 25 61" fill="#bab3a1"/><rect x="16" y="38" width="32" height="5" rx="1" ry="1" fill="#dbd2bd"/><rect x="16" y="38" width="29" height="5" rx="1" ry="1" fill="#f2e8d1"/><path d="M20,43H17a1,1,0,0,1-1-1V39a1,1,0,0,1,1-1h3a1,1,0,0,0-1,1v3A1,1,0,0,0,20,43Z" fill="#dbd2bd"/><path d="M18,43H17a1,1,0,0,1-1-1V39a1,1,0,0,1,1-1H27" fill="none" stroke="#2d3030" stroke-linecap="round" stroke-linejoin="round" stroke-width="2"/><path d="M37,38H47a1,1,0,0,1,1,1v3a1,1,0,0,1-1,1H46" fill="none" stroke="#2d3030" stroke-linecap="round" stroke-linejoin="round" stroke-width="2"/><polygon points="46 43 43 61 21 61 18 43 46 43" fill="none" stroke="#2d3030" stroke-linecap="round" stroke-linejoin="round" stroke-width="2"/><path d="M17.77,15.73c-3.28-1.89-6.16-2.57-7.77-2,6.91,4.73,9.08,16.73,17,24.3h5c0-5.86-.09-6.43-1.81-9.44A35.25,35.25,0,0,0,17.78,15.74" fill="none" stroke="#2d3030" stroke-linecap="round" stroke-linejoin="round" stroke-width="2"/><path d="M17.77,15.73h0C23.09,21.45,25,31.3,32,38" fill="none" stroke="#2d3030" stroke-linecap="round" stroke-linejoin="round" stroke-width="2"/><path d="M46.23,15.73c3.28-1.89,6.16-2.57,7.77-2C47.09,18.43,44.92,30.43,37,38H32c0-5.86.09-6.43,1.81-9.44A35.25,35.25,0,0,1,46.22,15.74" fill="none" stroke="#2d3030" stroke-linecap="round" stroke-linejoin="round" stroke-width="2"/><path d="M46.23,15.73h0C40.91,21.45,39,31.3,32,38" fill="none" stroke="#2d3030" stroke-linecap="round" stroke-linejoin="round" stroke-width="2"/><path d="M36.8,3c9.21.14,8.59,8.76,8.59,8.76h-.33c-1.56,0-8.16-.49-8.28-8.76" fill="none" stroke="#2d3030" stroke-linecap="round" stroke-linejoin="round" stroke-width="2"/><path d="M32,38V27.33S31.53,3.64,36.57,3h.21" fill="none" stroke="#2d3030" stroke-linecap="round" stroke-linejoin="round" stroke-width="2"/><line x1="45" y1="49" x2="40" y2="49" fill="none" stroke="#2d3030" stroke-linecap="round" stroke-linejoin="round" stroke-width="2"/><line x1="36" y1="49" x2="37" y2="49" fill="none" stroke="#2d3030" stroke-linecap="round" stroke-linejoin="round" stroke-width="2"/><line x1="20" y1="55" x2="25" y2="55" fill="none" stroke="#2d3030" stroke-linecap="round" stroke-linejoin="round" stroke-width="2"/><line x1="29" y1="55" x2="28" y2="55" fill="none" stroke="#2d3030" stroke-linecap="round" stroke-linejoin="round" stroke-width="2"/></g></svg>